<svg xmlns="http://www.w3.org/2000/svg" viewBox="0 0 520 520" width="512" height="512" role="img" aria-label="Spatial proof surface: static geodesic render">
  <!-- Static fallback for the spatial-proof-surface scene (ADR-015): the GeodesicRenderCard
       render with theme variables resolved to the default (dark) palette, animation removed. -->
  <rect width="520" height="520" fill="hsl(224, 52%, 9%)"/>
  <g transform="translate(0 90)">
    <ellipse cx="260" cy="286" rx="180" ry="22" fill="hsla(204, 100%, 42%, 0.14)"/>
    <g opacity="0.85" fill="none">
      <ellipse cx="260" cy="176" rx="178" ry="58" stroke="hsla(193, 100%, 50%, 0.26)"/>
      <ellipse cx="260" cy="176" rx="112" ry="168" stroke="hsla(41, 64%, 56%, 0.18)"/>
    </g>
    <path d="M90 270C106 158 172 78 260 52C348 78 414 158 430 270Z" fill="hsla(204, 100%, 42%, 0.10)" stroke="hsla(193, 100%, 50%, 0.42)" stroke-width="2"/>
    <g stroke="hsla(212, 24%, 82%, 0.36)" stroke-width="1.2" fill="none">
      <path d="M90 270 260 52 430 270"/>
      <path d="M140 270 260 52 380 270"/>
      <path d="M190 270 260 52 330 270"/>
      <path d="M240 270 260 52 280 270"/>
      <path d="M116 226C184 206 336 206 404 226"/>
      <path d="M142 182C204 164 316 164 378 182"/>
      <path d="M178 132C218 120 302 120 342 132"/>
      <path d="M214 88C236 82 284 82 306 88"/>
      <path d="M112 235 180 132 260 52 340 132 408 235"/>
      <path d="M156 270 204 164 260 52 316 164 364 270"/>
    </g>
    <g fill="hsl(41, 55%, 72%)">
      <circle cx="260" cy="52" r="4"/><circle cx="180" cy="132" r="4"/><circle cx="340" cy="132" r="4"/>
      <circle cx="204" cy="164" r="4"/><circle cx="316" cy="164" r="4"/><circle cx="140" cy="226" r="4"/>
      <circle cx="380" cy="226" r="4"/>
    </g>
    <path d="M118 278C196 294 324 294 402 278" stroke="hsl(41, 55%, 72%)" stroke-width="2.5" fill="none"/>
  </g>
</svg>
